<?xml version="1.0" encoding="UTF-8"?>
<svg width="1530px" height="695px" viewBox="0 0 1530 695" version="1.1" xmlns="http://www.w3.org/2000/svg" xmlns:xlink="http://www.w3.org/1999/xlink">
    <!-- Generator: Sketch 51.3 (57544) - http://www.bohemiancoding.com/sketch -->
    <title>Artboard</title>
    <desc>Created with Sketch.</desc>
    <defs></defs>
    <g id="Artboard" stroke="none" stroke-width="1" fill="none" fill-rule="evenodd">
        <rect fill="#FFFFFF" x="0" y="0" width="1530" height="695"></rect>
        <rect id="Rectangle-2" fill="#FFFFFF" x="-87" y="-31" width="1691" height="755"></rect>
        <g id="Group" transform="translate(70.000000, 80.000000)">
            <path d="M0,369.5 L0,173.46 L50.96,173.46 L145.08,293.32 L145.08,173.46 L195.78,173.46 L195.78,369.5 L145.08,369.5 L50.96,249.64 L50.96,369.5 L0,369.5 Z M348.4,216.62 L287.82,216.62 L287.82,249.38 L345.02,249.38 L345.02,292.54 L287.82,292.54 L287.82,326.34 L348.4,326.34 L348.4,369.5 L236.86,369.5 L236.86,173.46 L348.4,173.46 L348.4,216.62 Z M526.24,238.98 C514.453274,224.593261 499.89342,217.4 482.56,217.4 C474.933295,217.4 467.870033,218.786653 461.37,221.56 C454.869968,224.333347 449.280023,228.10331 444.6,232.87 C439.919977,237.63669 436.23668,243.3133 433.55,249.9 C430.86332,256.4867 429.52,263.593295 429.52,271.22 C429.52,279.020039 430.86332,286.2133 433.55,292.8 C436.23668,299.3867 439.96331,305.106642 444.73,309.96 C449.496691,314.813358 455.086635,318.626653 461.5,321.4 C467.913365,324.173347 474.846629,325.56 482.3,325.56 C498.593415,325.56 513.239935,318.626736 526.24,304.76 L526.24,365.08 L521.04,366.9 C513.239961,369.673347 505.960034,371.709993 499.2,373.01 C492.439966,374.310006 485.7667,374.96 479.18,374.96 C465.659932,374.96 452.703395,372.403359 440.31,367.29 C427.916605,362.176641 416.996714,354.98338 407.55,345.71 C398.103286,336.43662 390.520029,325.430064 384.8,312.69 C379.079971,299.949936 376.22,286.040075 376.22,270.96 C376.22,255.879925 379.036639,242.056729 384.67,229.49 C390.303362,216.92327 397.843286,206.090045 407.29,196.99 C416.736714,187.889955 427.699938,180.783359 440.18,175.67 C452.660062,170.556641 465.746598,168 479.44,168 C487.240039,168 494.909962,168.823325 502.45,170.47 C509.990038,172.116675 517.919958,174.673316 526.24,178.14 L526.24,238.98 Z M602.94,271.48 C602.94,279.280039 604.413319,286.4733 607.36,293.06 C610.306681,299.6467 614.293308,305.366642 619.32,310.22 C624.346692,315.073358 630.196633,318.84332 636.87,321.53 C643.543367,324.21668 650.606629,325.56 658.06,325.56 C665.513371,325.56 672.576633,324.21668 679.25,321.53 C685.923367,318.84332 691.816641,315.073358 696.93,310.22 C702.043359,305.366642 706.073319,299.6467 709.02,293.06 C711.966681,286.4733 713.44,279.280039 713.44,271.48 C713.44,263.679961 711.966681,256.4867 709.02,249.9 C706.073319,243.3133 702.043359,237.593358 696.93,232.74 C691.816641,227.886642 685.923367,224.11668 679.25,221.43 C672.576633,218.74332 665.513371,217.4 658.06,217.4 C650.606629,217.4 643.543367,218.74332 636.87,221.43 C630.196633,224.11668 624.346692,227.886642 619.32,232.74 C614.293308,237.593358 610.306681,243.3133 607.36,249.9 C604.413319,256.4867 602.94,263.679961 602.94,271.48 Z M549.64,271.48 C549.64,256.919927 552.32664,243.356729 557.7,230.79 C563.07336,218.223271 570.526619,207.260047 580.06,197.9 C589.593381,188.539953 600.989934,181.216693 614.25,175.93 C627.510066,170.643307 642.113254,168 658.06,168 C673.833412,168 688.393267,170.643307 701.74,175.93 C715.086733,181.216693 726.569952,188.539953 736.19,197.9 C745.810048,207.260047 753.30664,218.223271 758.68,230.79 C764.05336,243.356729 766.74,256.919927 766.74,271.48 C766.74,286.040073 764.05336,299.603271 758.68,312.17 C753.30664,324.736729 745.810048,335.699953 736.19,345.06 C726.569952,354.420047 715.086733,361.743307 701.74,367.03 C688.393267,372.316693 673.833412,374.96 658.06,374.96 C642.113254,374.96 627.510066,372.316693 614.25,367.03 C600.989934,361.743307 589.593381,354.420047 580.06,345.06 C570.526619,335.699953 563.07336,324.736729 557.7,312.17 C552.32664,299.603271 549.64,286.040073 549.64,271.48 Z" id="NECO" fill="#0449C6"></path>
            <path d="M865,181.457031 C865,177.733054 866.311836,174.559258 868.935547,171.935547 C871.559258,169.311836 874.733054,168 878.457031,168 C882.181008,168 885.354805,169.311836 887.978516,171.935547 C890.602227,174.559258 891.914062,177.733054 891.914062,181.457031 L891.914062,344.210938 L986.113281,344.210938 C989.837258,344.210938 993.011055,345.522773 995.634766,348.146484 C998.258477,350.770195 999.570312,353.943992 999.570312,357.667969 C999.570312,361.391946 998.258477,364.565742 995.634766,367.189453 C993.011055,369.813164 989.837258,371.125 986.113281,371.125 L878.457031,371.125 C876.510407,371.125 874.733081,370.786462 873.125,370.109375 C871.516919,369.432288 870.09929,368.480149 868.87207,367.25293 C867.644851,366.02571 866.692712,364.608081 866.015625,363 C865.338538,361.391919 865,359.614593 865,357.667969 L865,181.457031 Z M1089.07227,255.470703 C1082.80921,255.470703 1076.96943,256.655587 1071.55273,259.025391 C1066.13604,261.395194 1061.43882,264.590149 1057.46094,268.610352 C1053.48305,272.630554 1050.33042,277.348931 1048.00293,282.765625 C1045.67544,288.182319 1044.51172,293.93747 1044.51172,300.03125 C1044.51172,306.12503 1045.67544,311.880181 1048.00293,317.296875 C1050.33042,322.713569 1053.48305,327.431946 1057.46094,331.452148 C1061.43882,335.472351 1066.13604,338.667306 1071.55273,341.037109 C1076.96943,343.406913 1082.80921,344.591797 1089.07227,344.591797 C1095.25068,344.591797 1101.04815,343.406913 1106.46484,341.037109 C1111.88154,338.667306 1116.59991,335.451192 1120.62012,331.388672 C1124.64032,327.326152 1127.81412,322.607774 1130.1416,317.233398 C1132.46909,311.859023 1133.63281,306.12503 1133.63281,300.03125 C1133.63281,293.93747 1132.46909,288.203477 1130.1416,282.829102 C1127.81412,277.454726 1124.64032,272.736348 1120.62012,268.673828 C1116.59991,264.611308 1111.88154,261.395194 1106.46484,259.025391 C1101.04815,256.655587 1095.25068,255.470703 1089.07227,255.470703 Z M1133.63281,357.921875 L1133.63281,355.382812 C1127.28512,360.460963 1120.38741,364.354153 1112.93945,367.0625 C1105.4915,369.770847 1097.53585,371.125 1089.07227,371.125 C1069.43675,371.125 1052.67911,364.184965 1038.79883,350.304688 C1024.91855,336.42441 1017.97852,319.666765 1017.97852,300.03125 C1017.97852,280.395735 1024.91855,263.63809 1038.79883,249.757812 C1052.67911,235.877535 1069.43675,228.9375 1089.07227,228.9375 C1108.53851,228.9375 1125.29615,235.877535 1139.3457,249.757812 C1153.22598,263.63809 1160.16602,280.395735 1160.16602,300.03125 L1160.16602,357.921875 C1160.16602,361.561216 1158.87534,364.671537 1156.29395,367.25293 C1153.71255,369.834323 1150.60223,371.125 1146.96289,371.125 C1143.23891,371.125 1140.08628,369.834323 1137.50488,367.25293 C1134.92349,364.671537 1133.63281,361.561216 1133.63281,357.921875 Z M1251.57227,344.591797 C1257.75068,344.591797 1263.54815,343.406913 1268.96484,341.037109 C1274.38154,338.667306 1279.09991,335.451192 1283.12012,331.388672 C1287.14032,327.326152 1290.31412,322.607774 1292.6416,317.233398 C1294.96909,311.859023 1296.13281,306.12503 1296.13281,300.03125 C1296.13281,293.93747 1294.96909,288.203477 1292.6416,282.829102 C1290.31412,277.454726 1287.14032,272.736348 1283.12012,268.673828 C1279.09991,264.611308 1274.38154,261.395194 1268.96484,259.025391 C1263.54815,256.655587 1257.75068,255.470703 1251.57227,255.470703 C1245.30921,255.470703 1239.46943,256.655587 1234.05273,259.025391 C1228.63604,261.395194 1223.93882,264.590149 1219.96094,268.610352 C1215.98305,272.630554 1212.83042,277.348931 1210.50293,282.765625 C1208.17544,288.182319 1207.01172,293.93747 1207.01172,300.03125 C1207.01172,306.12503 1208.17544,311.880181 1210.50293,317.296875 C1212.83042,322.713569 1215.98305,327.431946 1219.96094,331.452148 C1223.93882,335.472351 1228.63604,338.667306 1234.05273,341.037109 C1239.46943,343.406913 1245.30921,344.591797 1251.57227,344.591797 Z M1207.01172,244.679688 C1219.62246,234.184843 1234.47583,228.9375 1251.57227,228.9375 C1271.03851,228.9375 1287.79615,235.877535 1301.8457,249.757812 C1308.78584,256.613316 1313.99087,264.251585 1317.46094,272.672852 C1320.93101,281.094118 1322.66602,290.213493 1322.66602,300.03125 C1322.66602,319.836037 1315.72598,336.593681 1301.8457,350.304688 C1287.79615,364.184965 1271.03851,371.125 1251.57227,371.125 C1231.93675,371.125 1215.17911,364.184965 1201.29883,350.304688 C1187.41855,336.42441 1180.47852,319.666765 1180.47852,300.03125 L1180.47852,181.203125 C1180.47852,177.394512 1181.72688,174.241874 1184.22363,171.745117 C1186.72039,169.24836 1189.87303,168 1193.68164,168 C1197.40562,168 1200.55826,169.24836 1203.13965,171.745117 C1205.72104,174.241874 1207.01172,177.394512 1207.01172,181.203125 L1207.01172,244.679688 Z M1376.36719,353.097656 C1376.36719,358.091171 1374.61102,362.344058 1371.09863,365.856445 C1367.58625,369.368833 1363.33336,371.125 1358.33984,371.125 C1353.34633,371.125 1349.09344,369.368833 1345.58105,365.856445 C1342.06867,362.344058 1340.3125,358.091171 1340.3125,353.097656 C1340.3125,348.104142 1342.06867,343.851255 1345.58105,340.338867 C1349.09344,336.82648 1353.34633,335.070312 1358.33984,335.070312 C1363.33336,335.070312 1367.58625,336.82648 1371.09863,340.338867 C1374.61102,343.851255 1376.36719,348.104142 1376.36719,353.097656 Z" id="Lab." fill="#A3A4A4"></path>
            <rect id="Rectangle" fill="#0449C6" x="0" y="437" width="566" height="97" rx="48.5"></rect>
            <rect id="Rectangle" fill="#0449C6" x="611" y="437" width="765" height="97" rx="48.5"></rect>
            <path d="M159.2,471.45 L159.2,467.15 C159.2,465.05 159.15,463.7 158.9,462.3 L164.75,462.3 C164.55,463.7 164.45,465.1 164.45,467.2 L164.45,471.45 L166.1,471.45 C167.65,471.45 169,471.35 170.45,471.15 L170.45,476.6 C169,476.45 167.65,476.35 166.2,476.35 L164.55,476.35 C166.3,479.95 168.75,483.35 171.75,486.4 C170.55,488.05 170.05,488.95 169.05,491.45 C166.9,488.6 166.05,487.2 164.2,483.3 C164.45,486.1 164.45,486.25 164.45,490.6 L164.45,502.9 C164.45,505.2 164.55,506.9 164.75,508.35 L158.95,508.35 C159.15,506.9 159.25,505.2 159.25,502.95 L159.25,493 C159.25,489.65 159.3,488.25 159.55,485.55 C157.35,491.2 155.75,494.2 152.8,498.15 C151.85,495.75 151.2,494.5 150,492.9 C153.6,488.5 157.4,481.4 158.8,476.35 L156.2,476.35 C154.3,476.35 152.95,476.45 151.4,476.6 L151.4,471.15 C152.95,471.35 154.35,471.45 156.25,471.45 L159.2,471.45 Z M191.1,476.75 L191.1,502 C191.1,504.8 190.4,506.2 188.8,506.85 C187.7,507.3 186.15,507.45 183.25,507.45 C181.95,507.45 181.5,507.45 178.05,507.25 C177.75,504.9 177.4,503.55 176.55,501.7 C177.2,501.8 177.75,501.85 178.05,501.9 C179.95,502.15 181.9,502.3 183.6,502.3 C185.25,502.3 185.65,502.05 185.65,500.9 L185.65,476.75 L177.05,476.75 C174.85,476.75 172.95,476.85 171.45,477.05 L171.45,471.5 C172.9,471.7 174.55,471.8 177,471.8 L185.65,471.8 L185.65,468.35 C185.65,465.95 185.55,464.1 185.3,462.5 L191.4,462.5 C191.2,464.2 191.1,465.9 191.1,468.4 L191.1,471.8 L191.45,471.8 C193.6,471.8 195,471.7 196.3,471.5 L196.3,476.95 C194.85,476.8 193.45,476.75 191.6,476.75 L191.1,476.75 Z M182.65,492.15 L177.9,495.1 C175.95,489.5 174.7,486.9 171.65,482.45 L176.35,480.15 C179.4,484.55 180.75,487.1 182.65,492.15 Z M217.55,476.3 L213.15,476.3 C209.95,476.3 208.5,476.35 206.95,476.6 L206.95,470.75 C208.7,471 210.45,471.1 213.1,471.1 L217.55,471.1 L217.55,467.75 C217.55,464.75 217.5,463.65 217.25,462.45 L223.55,462.45 C223.3,463.9 223.25,465.15 223.25,468.05 L223.25,471.1 L234.5,471.1 L234.5,468.25 C234.5,465.4 234.45,464.05 234.2,462.5 L240.35,462.5 C240.1,464.1 240,465.5 240,468.25 L240,471.1 L244.1,471.1 C246.7,471.1 248.35,471 250.25,470.75 L250.25,476.6 C248.4,476.4 246.85,476.3 244.1,476.3 L240,476.3 L240,487.2 L245.35,487.2 C248.15,487.2 249.7,487.1 251.5,486.9 L251.5,492.75 C249.55,492.5 248,492.4 245.35,492.4 L240,492.4 L240,501.9 C240,504.75 240.1,506.5 240.35,508.25 L234.2,508.25 C234.4,506.55 234.5,504.85 234.5,501.9 L234.5,492.4 L222.4,492.4 C221.8,496 220.45,499.2 218.25,502.15 C216.45,504.6 214.65,506.25 211.3,508.5 C209.75,506.35 208.85,505.4 207,503.85 C212.85,500.1 215.2,497.3 216.5,492.4 L211.65,492.4 C208.7,492.4 207.25,492.5 205.6,492.75 L205.6,486.9 C207.25,487.1 208.9,487.2 211.55,487.2 L217.25,487.2 C217.45,485.3 217.55,482.9 217.55,481 L217.55,476.3 Z M223.25,476.3 L223.25,482.1 C223.25,483.45 223.2,484.65 223,487.2 L234.5,487.2 L234.5,476.3 L223.25,476.3 Z M285.15,480.7 L285.15,468.85 C283.6,468.85 282.35,468.9 281.05,469.1 L281.05,463.65 C282.1,463.85 283.95,463.95 286.55,463.95 L301,463.95 C303.2,463.95 304.85,463.85 306.35,463.65 L306.35,469.1 C304.8,468.9 304.05,468.85 301.45,468.85 L301.45,480.7 L301.85,480.7 C304.45,480.7 305.45,480.65 306.85,480.45 L306.85,486.05 C305.4,485.85 304.35,485.8 301.85,485.8 L301.45,485.8 L301.45,502.1 C301.45,504.3 301.55,506.2 301.8,508.3 L295.85,508.3 C296.05,506.1 296.15,504.6 296.15,502.15 L296.15,485.8 L290.35,485.8 C290.15,490.25 289.85,492.9 289.15,495.8 C287.9,501.25 286.35,504.55 283,508.75 C281.65,507.15 280.35,506.2 278.3,505.2 C281.3,501.75 282.95,498.5 284.1,493.7 C284.65,491.5 284.9,489.15 285.05,485.8 C282.6,485.8 281.8,485.85 280.15,486.05 L280.15,480.45 C281.65,480.65 282.5,480.7 285.15,480.7 Z M290.45,480.7 L296.15,480.7 L296.15,468.85 L290.45,468.85 L290.45,480.7 Z M267.25,469 L265.4,469 C263.6,469 262.55,469.05 261.1,469.25 L261.1,463.85 C262.4,464.05 264.05,464.15 265.95,464.15 L274.7,464.15 C276.85,464.15 278,464.1 279.5,463.85 L279.5,469.2 C278.15,469.05 276.95,469 275.2,469 L272.65,469 C272,473.05 271.15,476 269.5,479.8 L275.55,479.8 C277.05,479.8 277.55,479.75 278.55,479.65 C278.4,480.95 278.4,481.6 278.4,483.3 L278.4,500.5 C278.4,502.55 278.45,503.2 278.55,504.4 L273.6,504.4 L273.6,502.1 L269.3,502.1 L269.3,507.1 L263.9,507.1 C264.1,505.65 264.2,504.05 264.2,502 L264.2,492.85 C264.2,490.9 264.2,490.7 264.3,488 C263.45,489.75 262.75,490.75 261.15,492.65 C260.55,489.45 260.25,488.5 259.2,486.45 C261.95,483.7 263.8,480.65 265.55,475.75 C266.45,473.35 266.8,471.95 267.25,469 Z M269.3,484.6 L269.3,497.7 L273.65,497.7 L273.65,484.6 L269.3,484.6 Z M335.3,466.9 L335.3,465.75 C335.3,464.35 335.2,463.55 335,462.5 L341.1,462.5 C340.9,463.45 340.85,464.35 340.85,465.75 L340.85,466.9 L354.9,466.9 C357.2,466.9 358.45,466.85 360.4,466.65 C360.25,467.75 360.2,468.7 360.2,470.35 L360.2,473.9 C360.2,475.45 360.25,476.45 360.4,477.6 L357.15,477.6 C356.75,480.4 356.15,481.55 354.7,482.2 C353.55,482.7 351.3,482.9 346.5,482.9 C341.3,482.9 339.85,482.1 339.85,479.2 L339.85,471.75 L335.7,471.75 C334.9,475.05 334.4,476.35 333.05,478.2 C330.75,481.4 328,482.85 320.7,484.75 C319.8,483.05 319.2,482.05 317.7,480.15 C323.7,479.05 325.8,478.3 327.65,476.7 C329.1,475.45 329.85,474 330.25,471.75 L321.95,471.75 L321.95,477.55 L316.5,477.55 C316.65,476.45 316.75,475.35 316.75,473.8 L316.75,470.35 C316.75,468.75 316.7,467.8 316.55,466.65 C318.45,466.85 319.75,466.9 322.05,466.9 L335.3,466.9 Z M354.95,475.35 L354.95,471.75 L344.95,471.75 L344.95,477.05 C344.95,478.15 345.35,478.3 348.1,478.3 C350.55,478.3 351.55,478.05 351.9,477.4 C352.1,476.95 352.2,476 352.25,474.55 C353.4,475 353.85,475.1 354.95,475.35 Z M337.55,486.85 L344.4,486.85 C347,486.85 348.1,486.8 349.65,486.65 C349.55,487.95 349.5,488.8 349.45,491.15 L349.3,501 C349.25,502.3 349.7,502.6 351.5,502.6 C355.2,502.6 355.75,502.45 356.1,501.45 C356.45,500.3 356.7,497.65 356.75,493.65 C358.7,494.55 359.45,494.8 362,495.35 C361.2,507.2 360.9,507.55 351.55,507.55 C345.45,507.55 343.95,506.6 343.95,502.95 L343.95,502.6 L344.1,491.8 L336.7,491.8 C335.55,496.15 333.9,499 330.95,501.8 C327.95,504.6 324.15,506.75 318.95,508.6 C317.95,506.5 317.4,505.65 315.65,503.65 C321.75,501.65 324.7,500.25 327.15,498.1 C329.05,496.45 330.3,494.5 331.2,491.8 L324.3,491.8 C321.6,491.8 320.15,491.85 318.7,492.05 L318.7,486.55 C320.2,486.75 321.7,486.85 324.2,486.85 L332.2,486.85 C332.35,485.55 332.4,484.7 332.4,483.8 C332.4,482.75 332.35,482 332.2,480.95 L338.15,480.95 C337.9,481.9 337.9,482.2 337.7,485 C337.65,485.75 337.65,486.1 337.55,486.85 Z M390.4,492.25 L390.4,487.85 C387.15,488.05 387.15,488.05 379.35,488.4 C376.95,488.5 375.45,488.6 374.95,488.65 L374.35,483.6 C375.65,483.7 376.45,483.75 378,483.75 C378.9,483.75 380.05,483.75 382.3,483.7 C383.45,482.1 384.4,480.55 385.25,478.85 L382.85,478.85 C379.5,478.85 378.3,478.9 376.85,479.1 L376.85,476.7 L371.85,476.7 C371.85,475.9 371.85,475.9 371.95,475 C372,474.35 372.05,473.2 372.05,472 L372.05,469.45 C372.05,467.95 372,467 371.85,465.75 C373.65,465.9 375.2,465.95 378.05,465.95 L390.25,465.95 L390.25,465.25 C390.25,464.05 390.15,463 390,462 L396.1,462 C395.95,462.95 395.85,464 395.85,465.25 L395.85,465.95 L408.8,465.95 C411.9,465.95 413.55,465.9 415.1,465.75 C415,466.9 414.95,467.55 414.95,469.65 L414.95,472.4 C414.95,474 415.05,475.25 415.2,476.5 L410.1,476.5 L410.1,479.1 C408.65,478.9 407.65,478.85 404.7,478.85 L403.55,478.85 C406.8,481.55 407.6,482.3 412.45,487.2 L408.4,490.65 C406.8,488.7 406.25,488.05 405.25,487 C402.05,487.2 402.05,487.2 395.9,487.6 L395.9,492.25 L406.35,492.25 C408.85,492.25 409.85,492.2 411.4,492.05 L411.4,497.25 C409.8,497.05 408.65,497 406.25,497 L395.9,497 L395.9,501.75 L409.9,501.75 C413,501.75 414.55,501.65 416.1,501.45 L416.1,506.9 C414.35,506.7 412.35,506.6 409.25,506.6 L377.7,506.6 C374.65,506.6 372.65,506.7 370.95,506.9 L370.95,501.45 C372.55,501.7 374.1,501.75 377.15,501.75 L390.4,501.75 L390.4,497 L380.9,497 C378.4,497 377.25,497.05 375.65,497.25 L375.65,492.05 C377.1,492.2 378.05,492.25 381,492.25 L390.4,492.25 Z M409.75,474.1 L409.75,470.75 L377.25,470.75 L377.25,474.1 C378.4,474.2 379.6,474.25 382.25,474.25 L404.55,474.25 C407.4,474.25 408.65,474.2 409.75,474.1 Z M401.8,478.85 L391,478.85 C389.85,480.95 389.35,481.8 388.1,483.55 C397.45,483.2 397.45,483.2 401.4,482.95 C400.4,482.05 400.05,481.7 398.75,480.65 L401.8,478.85 Z" id="村井研究室" fill="#FFFFFF"></path>
            <path d="M758.55,463.55 L764.3,467.55 C763.45,468.3 763.2,468.5 762.45,469.3 C758.7,473.2 754.95,476.45 750.65,479.6 L750.65,500.95 C750.65,503.7 750.7,505.15 750.9,506.5 L743.9,506.5 C744.15,505.05 744.2,504.05 744.2,501.1 L744.2,483.5 C738.35,487 735.55,488.3 726.35,491.6 C725.3,489 724.75,488.15 723,485.9 C732.9,483.2 741.3,479.05 749.25,472.9 C753.7,469.45 757.1,466 758.55,463.55 Z M781.45,472.05 L785.6,467.1 C791.55,470.8 794.65,473.1 798.5,476.75 L794.2,482.2 C790.2,477.95 786.1,474.65 781.45,472.05 Z M783.2,505.05 L781.35,498.15 C785.65,497.9 791.6,496.45 796.15,494.45 C802.4,491.75 807.05,487.9 811,482.2 C813.2,479 814.6,476.25 816.1,472.2 C818.05,474.55 818.85,475.3 821.4,477.1 C817.15,486.25 812.4,492.15 805.55,496.7 C800.45,500.1 794.25,502.55 786.5,504.2 C784.5,504.6 784.35,504.65 783.2,505.05 Z M870.9,468.25 L874.25,471.6 C873.6,472.45 873.5,472.65 872.7,474.95 C871.1,479.5 868.35,485.35 866.3,488.7 C861.2,497 854.15,502.9 843.5,507.8 C841.9,505.1 841.25,504.25 839.35,502.65 C843.6,500.9 846.1,499.65 849.1,497.65 C852.65,495.35 854.75,493.55 857.3,490.7 C853.8,487.7 850.8,485.6 847.05,483.55 L850.85,479.1 C855.05,481.45 857.15,482.85 860.9,485.8 C863.25,482.2 864.95,478.7 866.5,474 L850.95,474.15 C847.85,479.3 844.3,483.35 839.25,487.6 C837.6,485.75 836.85,485.1 834.25,483.6 C839.75,479.5 843.75,474.95 846.8,469.35 C848.25,466.7 849.25,464.25 849.7,462.4 L856.2,463.85 C855.65,464.75 855.65,464.75 854.7,466.65 C854.1,468 853.75,468.6 853.5,469.05 C854.3,468.95 854.3,468.95 866.5,468.85 C868.55,468.8 869.6,468.7 870.9,468.25 Z M888.9,488.45 L888.9,481.5 C891.1,481.8 892.05,481.85 897,481.85 L923.65,481.85 C928.6,481.85 929.55,481.8 931.75,481.5 L931.75,488.45 C929.75,488.2 929.2,488.2 923.6,488.2 L897.05,488.2 C891.45,488.2 890.9,488.2 888.9,488.45 Z M968.2,507.35 L961.45,507.35 C961.65,506 961.75,504.55 961.75,502.9 L961.75,489.85 C961.25,490.25 960.9,490.45 960.25,490.8 C956.5,492.8 952.25,494.5 946.15,496.4 C945.2,494 944.75,493.15 943.2,490.95 C948.15,489.9 952.05,488.6 957.1,486.3 C962.9,483.65 968.3,480 972.6,475.7 L971.55,475.7 C971.25,475.75 971.25,475.75 953.25,475.85 C950.35,475.85 949.8,475.9 947.95,476.1 L947.95,470.05 C949.25,470.35 951.15,470.5 953.3,470.5 L961.65,470.5 L961.65,466.4 C961.6,464.55 961.6,463.85 961.4,462.8 L968.1,462.8 C967.9,463.75 967.85,464.65 967.85,466.3 L967.85,470.45 L976.3,470.45 C977.8,470.45 978.75,470.3 979.7,470 L982.6,473.4 C981.75,474.05 981.7,474.1 980.4,475.55 C977.6,478.8 975,481.15 970.2,484.9 C976.25,486.8 981.7,489.25 987.65,492.75 L984.35,498 C979.25,494.7 975.35,492.65 969.1,490 C968.45,489.7 968.35,489.7 967.85,489.45 C967.9,490.05 967.95,491.45 967.95,491.9 L967.95,502.9 C967.95,505.1 967.95,505.9 968.2,507.35 Z M1003.35,476.95 L1008.65,475.4 C1010.75,479.25 1011.75,481.65 1013.55,487.25 L1007.9,489.05 C1006.6,484 1005.6,481.35 1003.35,476.95 Z M1014.05,474.85 L1019.3,473.35 C1021.95,478.3 1022.9,480.5 1024.15,484.85 L1018.6,486.6 C1017.65,482.8 1016.15,478.95 1014.05,474.85 Z M1031.25,474.35 L1037.35,475.75 C1037.05,476.5 1036.95,476.75 1036.65,478.3 C1035.2,485.1 1032.95,490.6 1029.75,494.95 C1026.05,500 1021.9,503.25 1014.5,507 C1013.2,504.8 1012.6,504.05 1010.5,502.05 C1014,500.7 1016.05,499.6 1019,497.45 C1024.85,493.2 1028.2,488.1 1030.35,480.1 C1031,477.65 1031.25,475.9 1031.25,474.35 Z M1070.45,506.4 L1063.6,506.4 C1063.85,504.8 1063.9,503.45 1063.9,500.8 L1063.9,468.75 C1063.9,466.3 1063.8,465 1063.6,463.65 L1070.45,463.65 C1070.25,465.15 1070.25,465.8 1070.25,468.9 L1070.25,478.2 C1077.1,480.6 1084.95,484.25 1092.95,488.75 L1089.45,494.65 C1085.3,491.8 1080.1,488.95 1071.75,485.1 C1070.6,484.55 1070.45,484.5 1070.05,484.25 C1070.2,485.65 1070.25,486.25 1070.25,487.65 L1070.25,500.85 C1070.25,503.45 1070.3,504.75 1070.45,506.4 Z M1120.25,464.1 L1126.75,463.05 C1126.95,466.4 1128.45,473.6 1130.05,478.7 C1133.3,477.5 1133.3,477.5 1143,474.3 C1143.9,474 1144.15,473.9 1144.9,473.55 L1147.05,479.85 C1142.7,480.7 1136.15,482.6 1130.55,484.65 C1123.25,487.35 1119.6,490.55 1119.6,494.15 C1119.6,497.8 1123,499.35 1131.05,499.35 C1137.3,499.35 1143.45,498.6 1147.2,497.3 L1147.75,504.15 C1146.65,504.15 1146.4,504.2 1143.7,504.5 C1138.3,505.05 1135.5,505.25 1132,505.25 C1125.05,505.25 1120.7,504.4 1117.5,502.5 C1114.75,500.85 1113.15,497.75 1113.15,494.15 C1113.15,490.8 1114.75,487.6 1117.6,485.2 C1119.55,483.55 1121.15,482.55 1124.4,480.9 C1123.15,476.85 1122.3,473.5 1121.05,467.35 C1120.55,464.95 1120.5,464.85 1120.25,464.1 Z M1175.35,488.7 L1175.35,503.2 C1175.35,505.55 1175.4,506.8 1175.6,508.3 L1169.55,508.3 C1169.8,506.8 1169.85,505.45 1169.85,503.1 L1169.85,490.55 C1167.9,492.35 1166.85,493.15 1164.3,494.8 C1163.7,492.9 1162.8,491.1 1161.75,489.6 C1165.25,487.6 1167.65,485.7 1170.35,482.85 C1172.7,480.4 1174.15,478.35 1175.8,475.15 L1167.65,475.15 C1165.85,475.15 1164.8,475.2 1163.45,475.35 L1163.45,469.8 C1164.7,469.95 1165.75,470 1167.4,470 L1169.9,470 L1169.9,465.8 C1169.9,464.5 1169.8,463.15 1169.6,462 L1175.65,462 C1175.45,463.15 1175.35,464.25 1175.35,465.9 L1175.35,470 L1177.4,470 C1178.95,470 1179.65,469.95 1180.3,469.85 L1182.7,472.45 C1182.25,473.2 1181.95,473.7 1181.6,474.55 C1179.95,478.15 1179,479.8 1176.6,483.1 C1178.95,485.75 1181.25,487.55 1184.55,489.45 C1183.35,491.05 1182.6,492.45 1181.8,494.35 C1179.2,492.65 1177.5,491.2 1175.35,488.7 Z M1196.55,481.3 L1196.55,500.85 L1202.55,500.85 C1205.05,500.85 1206.7,500.75 1208.25,500.55 L1208.25,506.6 C1206.5,506.35 1204.55,506.25 1202.55,506.25 L1185.45,506.25 C1183.45,506.25 1181.55,506.35 1179.8,506.6 L1179.8,500.55 C1181.4,500.75 1183.15,500.85 1185.55,500.85 L1191,500.85 L1191,481.3 L1187.25,481.3 C1185.55,481.3 1183.95,481.4 1182.35,481.55 L1182.35,475.9 C1183.8,476.1 1185.1,476.15 1187.25,476.15 L1191,476.15 L1191,467.35 C1191,465.3 1190.9,464.1 1190.65,462.15 L1196.9,462.15 C1196.6,464.15 1196.55,465.2 1196.55,467.35 L1196.55,476.15 L1201.85,476.15 C1204.1,476.15 1205.35,476.1 1206.75,475.9 L1206.75,481.55 C1205.15,481.4 1203.6,481.3 1201.85,481.3 L1196.55,481.3 Z M1227.7,482.35 L1227.7,478.5 C1224.6,480.5 1223.2,481.25 1219.7,482.8 C1218.85,480.8 1218.05,479.4 1216.8,477.7 C1222.2,475.55 1225.55,473.7 1229.35,470.75 C1232.65,468.2 1235.2,465.55 1237.25,462.35 L1243.2,462.35 C1245.85,466.05 1247.85,468 1251.65,470.65 C1255.9,473.65 1259.95,475.75 1264.5,477.4 C1263.1,479.55 1262.45,480.95 1261.75,483 C1258.6,481.65 1256.7,480.65 1253.2,478.45 L1253.2,482.35 C1251.9,482.2 1250.6,482.15 1248.7,482.15 L1232,482.15 C1230.55,482.15 1229.05,482.2 1227.7,482.35 Z M1232.05,476.95 L1248.65,476.95 C1249.45,476.95 1249.9,476.95 1250.85,476.9 C1246.25,473.75 1243.4,471.15 1240.4,467.2 C1237.75,470.75 1234.65,473.65 1230,476.9 C1230.85,476.95 1231.15,476.95 1232.05,476.95 Z M1232.55,491.4 L1224.95,491.4 C1222.4,491.4 1220.7,491.5 1219.05,491.7 L1219.05,485.9 C1220.7,486.1 1222.6,486.2 1224.95,486.2 L1256.1,486.2 C1258.55,486.2 1260.3,486.1 1261.95,485.9 L1261.95,491.7 C1260.3,491.5 1258.6,491.4 1256.1,491.4 L1238.9,491.4 C1237.35,495.05 1235.8,498 1233.7,501.1 C1242.55,500.6 1242.55,500.6 1249.55,499.85 C1247.95,498.1 1247.1,497.2 1244.3,494.3 L1249.25,492.1 C1254.6,497.5 1256.75,500 1260.8,505.45 L1256,508.6 C1254.35,506.15 1253.85,505.45 1253,504.25 C1248.85,504.8 1245.85,505.15 1244,505.35 C1239.05,505.8 1229.15,506.7 1227.15,506.85 C1224.35,507.05 1221.85,507.3 1220.7,507.55 L1219.9,501.45 C1221.25,501.55 1222.1,501.6 1222.8,501.6 C1223.15,501.6 1224.65,501.55 1227.2,501.4 C1229.65,497.7 1231.2,494.8 1232.55,491.4 Z" id="インターネットと社会" fill="#FFFFFF"></path>
            <path d="M31.08,15.72 L29.28,15.72 C26.52,15.72 24.9,15.78 22.8,16.02 L22.8,10.14 L21,12.84 C16.92,19.2 15.24,21.54 12,25.56 C15.42,25.38 15.9,25.38 18.84,25.08 C18.24,23.52 17.88,22.68 16.8,20.22 L21.42,18.24 C23.88,23.64 24.9,26.34 26.1,30.42 L21.18,32.58 C20.82,31.38 20.82,31.26 20.52,30.3 C20.04,30.3 19.38,30.36 18.66,30.48 L16.02,30.72 L16.02,49.56 C16.02,52.56 16.14,54.12 16.38,55.98 L9.72,55.98 C9.96,54.18 10.08,52.56 10.08,49.56 L10.08,31.2 C8.04,31.32 8.04,31.32 3.48,31.56 C2.52,31.62 1.92,31.68 1.14,31.8 L0.42,25.5 C1.62,25.68 2.4,25.74 4.74,25.74 L5.34,25.74 C6.36,24.48 6.84,23.82 8.22,21.9 C5.46,18.12 3.9,16.38 0.18,12.78 L3.36,7.5 C4.44,8.52 4.74,8.88 5.58,9.78 C7.92,6.12 9.72,2.34 10.32,0 L16.02,2.58 C15.42,3.6 15.36,3.72 13.92,6.3 C12.24,9.36 10.86,11.58 9.3,13.92 C10.32,15.12 10.68,15.6 11.64,16.86 C14.16,12.84 16.44,8.64 17.1,6.78 L22.8,9.96 L22.8,9.24 C24.72,9.48 26.82,9.6 29.4,9.6 L35.4,9.6 L35.4,5.16 C35.4,3.36 35.28,1.86 35.04,0.54 L42.06,0.54 C41.82,1.8 41.7,3.3 41.7,5.16 L41.7,9.6 L48.9,9.6 C51.9,9.6 53.76,9.48 55.56,9.24 L55.56,16.02 C53.64,15.78 52.08,15.72 49.14,15.72 L37.68,15.72 C37.68,17.4 37.56,19.92 37.32,23.16 L47.28,23.16 C49.8,23.16 51.18,23.1 52.68,22.92 C52.56,24.18 52.5,24.84 52.44,27.42 C52.32,33.18 51.78,40.92 51.3,44.58 C50.58,49.98 49.56,52.44 47.4,53.7 C46.14,54.42 43.74,54.9 41.22,54.9 C39.9,54.9 37.08,54.84 35.64,54.72 C35.28,52.08 34.86,50.52 33.84,48.06 C36.54,48.6 38.34,48.78 40.8,48.78 C43.2,48.78 44.1,47.94 44.64,45 C45.3,41.64 45.78,35.46 45.96,29.04 L36.9,29.04 C36.42,33.42 35.16,38.64 33.54,42.6 C31.44,47.7 28.44,52.08 24.12,56.1 C22.44,53.76 20.88,52.26 18.96,51.06 C21.3,49.32 22.2,48.42 23.58,46.68 L19.2,47.58 C18.78,41.52 18.54,39.78 17.46,34.56 L22.2,33.6 C23.28,39.12 23.52,40.5 24.12,45.96 C27,41.82 28.62,37.98 29.82,32.04 C30.66,28.08 31.02,22.98 31.08,15.72 Z M2.64,34.08 L7.98,34.92 C7.44,43.44 6.84,47.58 5.4,52.8 L0,50.46 C1.62,45.84 2.52,40.5 2.64,34.08 Z M69.72,6.78 L77.94,6.78 C77.64,9 77.46,11.94 77.46,15.9 C77.46,21.12 77.94,28.32 78.6,31.98 C79.62,38.22 81.54,42.06 83.46,42.06 C84.36,42.06 85.2,41.16 85.92,39.48 C87.36,36.24 88.44,32.64 89.1,28.62 C91.2,31.02 92.16,31.92 95.1,34.08 C91.98,45.78 88.5,50.64 83.4,50.64 C79.38,50.64 76.14,47.7 73.74,41.94 C71.28,35.94 70.2,27.24 69.96,10.62 C69.9,8.52 69.9,8.1 69.72,6.78 Z M100.02,12.48 L106.32,9.48 C113.88,18.54 118.08,28.56 119.82,41.76 L112.38,44.58 C112.02,38.94 110.64,32.7 108.54,27.24 C106.5,21.78 103.62,16.92 100.02,12.48 Z M132.36,16.86 L131.94,9 C133.26,9.06 133.92,9.06 134.22,9.06 C135.3,9.06 135.3,9.06 144.12,8.46 C148.5,8.22 158.76,7.68 174.78,6.9 C179.7,6.66 180,6.66 180.96,6.42 L181.38,14.04 C180.72,13.98 180.72,13.98 180.12,13.98 C176.52,13.98 172.08,15.18 168.24,17.22 C160.62,21.18 156.12,27.18 156.12,33.24 C156.12,37.92 159.06,41.52 164.1,43.02 C167.04,43.92 170.88,44.58 173.04,44.58 C173.1,44.58 173.64,44.58 174.24,44.52 L173.16,52.68 C172.38,52.5 172.26,52.5 171.12,52.32 C164.52,51.48 160.74,50.4 157.08,48.36 C151.56,45.24 148.5,40.14 148.5,33.9 C148.5,28.8 150.54,23.76 154.2,19.8 C156.48,17.34 158.64,15.72 162.54,13.74 C157.68,14.46 153.96,14.82 142.32,15.66 C136.98,16.08 134.22,16.44 132.36,16.86 Z M169.08,22.62 L173.28,20.52 C175.92,23.34 177.54,25.62 179.58,29.34 L175.38,31.56 C173.4,27.9 171.72,25.5 169.08,22.62 Z M186.72,25.44 L182.58,27.78 C180.78,24.48 178.8,21.66 176.46,19.08 L180.48,16.98 C183.18,19.74 184.86,22.02 186.72,25.44 Z M193.8,41.88 L198.9,37.14 C204.42,41.34 207.78,44.64 212.4,50.34 L206.82,55.56 C202.44,49.62 199.02,46.02 193.8,41.88 Z M290.4,8.16 L303.48,8.16 C307.08,8.16 309.06,8.04 310.74,7.74 L310.74,14.7 C308.88,14.4 306.96,14.34 303.54,14.34 L290.4,14.34 L290.4,22.68 L306.84,22.68 C310.2,22.68 312.24,22.56 314.1,22.32 L314.1,29.28 C312.06,29.04 309.9,28.92 306.84,28.92 L293.4,28.92 C299.28,37.26 305.76,42.42 315.84,46.8 C313.98,49.2 313.32,50.28 311.76,53.28 C306.36,50.28 303.36,48.18 299.34,44.58 C295.14,40.86 293.28,38.64 290.22,33.84 C290.34,37.26 290.4,38.22 290.4,39.42 L290.4,49.32 C290.4,51.72 290.52,53.76 290.82,55.8 L283.26,55.8 C283.56,53.94 283.68,52.02 283.68,49.38 L283.68,39.72 C283.68,37.74 283.68,36.9 283.86,34.08 C281.22,38.22 279.12,40.74 275.46,44.1 C271.68,47.7 268.26,50.16 263.58,52.92 C262.2,50.4 261.36,49.14 259.44,46.86 C264.54,44.46 268.86,41.52 273.3,37.5 C276.06,34.92 278.22,32.4 280.68,28.92 L268.56,28.92 C265.62,28.92 263.64,29.04 261.36,29.28 L261.36,22.32 C263.64,22.56 265.32,22.68 268.5,22.68 L283.68,22.68 L283.68,14.34 L271.92,14.34 C268.62,14.34 266.76,14.4 264.66,14.7 L264.66,7.74 C266.7,8.04 268.44,8.16 271.86,8.16 L283.68,8.16 L283.68,4.5 C283.68,2.76 283.62,1.56 283.38,0.24 L290.7,0.24 C290.46,1.56 290.4,2.46 290.4,4.56 L290.4,8.16 Z M346.02,31.74 L333.84,31.74 C330.96,31.74 329.1,31.86 326.82,32.1 L326.82,25.32 C328.86,25.62 330.48,25.68 333.78,25.68 L338.94,25.68 C337.62,21.78 336.42,19.2 334.32,15.66 L339.96,13.14 C342,16.62 342.66,17.88 344.94,23.58 L340.2,25.68 L349.86,25.68 L349.86,12.6 L336.3,12.6 C333.54,12.6 331.68,12.72 329.64,12.96 L329.64,6.24 C331.74,6.54 333.6,6.66 336.66,6.66 L349.86,6.66 L349.86,4.98 C349.86,3.12 349.74,1.98 349.56,0.36 L356.76,0.36 C356.52,1.8 356.46,3 356.46,5.04 L356.46,6.66 L370.74,6.66 C374.22,6.66 376.2,6.54 377.88,6.24 L377.88,12.96 C376.08,12.66 374.22,12.6 371.16,12.6 L356.46,12.6 L356.46,25.68 L360.54,25.68 C363.24,21.36 364.98,17.82 366.42,13.56 L372.72,15.6 C371.22,19.26 369.96,21.72 367.5,25.68 L373.8,25.68 C377.4,25.68 379.08,25.62 380.7,25.32 L380.7,32.1 C378.66,31.86 376.56,31.74 373.5,31.74 L360.3,31.74 C365.46,38.76 372,43.56 381.84,47.58 C380.04,49.74 379.08,51.24 377.82,53.88 C371.88,50.82 368.22,48.42 364.2,44.82 C360.96,41.88 358.92,39.54 356.22,35.58 C356.4,38.82 356.46,40.02 356.46,41.28 L356.46,49.74 C356.46,52.02 356.58,53.94 356.88,55.86 L349.44,55.86 C349.74,53.94 349.86,52.26 349.86,49.74 L349.86,41.34 C349.86,39.48 349.86,38.34 350.04,35.76 C347.22,40.26 344.4,43.44 340.08,47.04 C336.78,49.74 333.66,51.84 329.94,53.76 C328.5,51.18 327.66,49.86 325.86,47.76 C331.38,45.3 336,42.3 340.56,38.1 C342.36,36.42 343.8,34.74 346.02,31.74 Z M424.38,12.42 C423.24,21.84 421.14,30.12 418.14,36.9 C414.72,44.64 410.88,48.18 405.96,48.18 C399.12,48.18 394.2,41.22 394.2,31.56 C394.2,24.96 396.54,18.78 400.8,14.1 C405.84,8.58 412.92,5.7 421.44,5.7 C435.84,5.7 445.2,14.46 445.2,27.96 C445.2,38.34 439.8,46.62 430.62,50.34 C427.74,51.54 425.4,52.14 421.2,52.86 C420.18,49.68 419.46,48.36 417.54,45.84 C423.06,45.12 426.66,44.16 429.48,42.54 C434.7,39.66 437.82,33.96 437.82,27.54 C437.82,21.78 435.24,17.1 430.44,14.22 C428.58,13.14 427.02,12.66 424.38,12.42 Z M417.06,12.48 C413.94,12.84 411.78,13.68 409.32,15.42 C404.28,19.02 401.16,25.2 401.16,31.62 C401.16,36.54 403.26,40.44 405.9,40.44 C407.88,40.44 409.92,37.92 412.08,32.76 C414.36,27.36 416.34,19.26 417.06,12.48 Z M505.26,12.42 L508.68,15.42 C508.2,16.5 508.08,17.34 508.02,19.44 C507.84,26.22 507.18,35.46 506.58,39.42 C505.02,49.8 502.92,52.26 495.72,52.26 C493.44,52.26 491.4,52.08 488.28,51.6 C488.16,47.82 487.98,46.68 486.9,43.92 C490.44,44.88 492.84,45.3 494.82,45.3 C497.4,45.3 498.3,43.98 499.26,38.76 C499.98,34.62 500.58,26.46 500.58,19.56 L486.6,19.62 C485.76,27.12 484.5,31.62 481.8,36.78 C478.5,43.14 473.16,48.6 465.6,53.4 C463.56,50.22 462.72,49.26 460.2,47.04 C467.7,43.08 472.62,38.34 475.8,31.92 C477.42,28.62 478.32,25.68 478.86,21.48 C478.98,20.64 479.1,20.04 479.16,19.62 L469.2,19.68 C465.54,19.68 464.7,19.74 462.72,19.98 L462.66,12.6 C464.7,12.96 466.32,13.08 469.32,13.08 L479.82,13.02 C480,10.74 480.12,7.26 480.12,5.52 L480.12,4.02 C480.12,3.24 480.12,2.76 479.94,1.68 L487.98,1.86 C487.86,2.64 487.8,2.88 487.74,3.72 C487.74,4.08 487.68,4.44 487.68,4.86 C487.56,6.12 487.56,6.12 487.44,9.24 C487.38,10.56 487.38,11.1 487.2,13.02 L500.52,12.96 C503.22,12.96 503.76,12.9 505.26,12.42 Z M570.36,7.8 L574.38,11.82 C573.6,12.84 573.48,13.08 572.52,15.84 C570.6,21.3 567.3,28.32 564.84,32.34 C558.72,42.3 550.26,49.38 537.48,55.26 C535.56,52.02 534.78,51 532.5,49.08 C537.6,46.98 540.6,45.48 544.2,43.08 C548.46,40.32 550.98,38.16 554.04,34.74 C549.84,31.14 546.24,28.62 541.74,26.16 L546.3,20.82 C551.34,23.64 553.86,25.32 558.36,28.86 C561.18,24.54 563.22,20.34 565.08,14.7 L546.42,14.88 C542.7,21.06 538.44,25.92 532.38,31.02 C530.4,28.8 529.5,28.02 526.38,26.22 C532.98,21.3 537.78,15.84 541.44,9.12 C543.18,5.94 544.38,3 544.92,0.78 L552.72,2.52 C552.06,3.6 552.06,3.6 550.92,5.88 C550.2,7.5 549.78,8.22 549.48,8.76 C550.44,8.64 550.44,8.64 565.08,8.52 C567.54,8.46 568.8,8.34 570.36,7.8 Z M633.3,2.16 L638.1,8.28 C637.38,8.46 637.38,8.46 633.06,9.9 C629.64,10.98 627.72,11.46 623.04,12.36 C622.98,20.46 622.98,20.46 622.86,22.5 L635.58,22.5 C639.66,22.5 640.68,22.44 642.9,22.08 L642.9,29.28 C640.68,29.04 639.54,28.98 635.7,28.98 L622.44,28.98 C621.78,34.56 620.52,38.58 618.42,42.06 C616.32,45.54 612.84,48.9 608.64,51.6 C606.96,52.68 605.82,53.34 603.06,54.6 C601.32,51.54 600.36,50.4 597.84,48.24 C602.16,46.68 604.44,45.42 607.14,43.2 C610.74,40.32 613.02,36.9 614.04,33 C614.28,31.98 614.46,30.96 614.7,28.98 L599.88,28.98 C596.04,28.98 594.9,29.04 592.68,29.28 L592.68,22.08 C594.9,22.44 595.92,22.5 600,22.5 L615.36,22.5 C615.48,19.98 615.48,17.64 615.48,13.44 C610.62,14.16 608.76,14.34 598.86,14.82 C598.26,12.12 597.96,11.22 596.64,8.34 C598.5,8.46 599.46,8.46 600.36,8.46 C608.4,8.46 618.66,7.08 626.04,4.98 C629.52,3.96 631.26,3.3 633.3,2.16 Z M660.3,14.58 L660.42,7.74 C662.88,8.28 666.72,8.52 674.34,8.52 C675.96,4.92 676.5,3.12 676.74,1.08 L684.6,1.92 C684.24,2.52 684.24,2.52 682.2,7.32 C681.9,7.98 681.78,8.16 681.66,8.4 C682.14,8.34 682.14,8.34 685.44,8.16 C692.4,7.74 697.86,7.08 701.16,6.12 L701.58,12.96 C699.9,13.08 699.9,13.08 696.84,13.44 C692.46,13.98 684.84,14.46 678.78,14.64 C677.04,18.06 675.36,20.46 673.26,22.62 L673.32,22.74 C673.74,22.44 673.74,22.44 674.52,21.84 C676.74,20.16 679.92,19.14 682.98,19.14 C687.66,19.14 690.6,21.36 691.56,25.5 C696.18,23.82 699.24,22.74 700.74,22.26 C703.98,21.12 704.22,21.06 705.18,20.46 L708,27.36 C706.32,27.6 704.52,28.08 701.34,28.98 C700.5,29.22 697.5,30.24 692.34,32.04 L692.34,32.7 C692.4,34.26 692.4,34.26 692.4,35.1 L692.4,37.5 C692.34,38.52 692.34,39.06 692.34,39.48 C692.34,40.8 692.4,41.64 692.52,42.66 L685.56,42.84 C685.8,41.76 685.92,38.7 685.92,35.88 L685.92,34.44 C682.98,35.82 681.42,36.66 680.16,37.56 C678.06,39.12 677.04,40.74 677.04,42.48 C677.04,45.6 679.92,46.86 687.18,46.86 C694.38,46.86 700.56,45.96 704.82,44.34 L705.42,52.08 C704.4,52.08 704.1,52.14 702.66,52.32 C698.34,52.98 692.58,53.4 687.3,53.4 C680.94,53.4 676.98,52.68 673.92,50.88 C671.16,49.32 669.54,46.44 669.54,43.14 C669.54,40.68 670.26,38.76 672.18,36.48 C674.88,33.12 678.3,30.84 685.08,28.02 C684.78,25.8 683.58,24.78 681.42,24.78 C677.94,24.78 673.74,26.88 669.12,30.96 C666.6,33.06 665.22,34.56 663.9,36.42 L658.44,31.02 C660,29.82 661.74,28.14 663.84,25.68 C666.18,22.92 669.84,17.7 671.04,15.42 C671.28,14.94 671.28,14.94 671.52,14.64 C671.28,14.64 670.5,14.7 670.5,14.7 C669.54,14.7 664.26,14.58 662.94,14.58 C661.8,14.52 661.8,14.52 661.26,14.52 C661.08,14.52 660.72,14.52 660.3,14.58 Z M731.22,50.88 L731.22,43.08 C731.22,42.3 731.22,41.94 731.16,41.34 C730.08,46.32 728.58,50.16 726,54.66 C724.32,52.38 722.94,50.88 721.14,49.38 C725.28,43.08 726.78,36.18 726.78,23.46 C726.78,21.06 726.72,19.92 726.6,18.12 L725.52,18.84 C724.08,16.38 723.24,15.3 721.2,13.38 C725.64,10.92 728.1,9.12 731.16,6.3 C733.5,4.14 734.82,2.7 736.14,0.78 L742.8,0.78 C746.1,4.62 749.64,7.14 755.94,10.14 C754.38,12.42 753.72,13.62 752.82,15.96 C750.36,14.58 749.4,13.98 747.9,12.96 L747.9,15.72 C746.82,15.6 745.86,15.54 744.48,15.54 L736.08,15.54 C734.28,15.54 733.62,15.6 732.6,15.72 L732.6,13.62 C730.68,15.24 728.76,16.68 727.44,17.58 C729.3,17.7 730.2,17.7 732.36,17.7 L747.6,17.7 C749.76,17.7 750.66,17.64 752.34,17.52 C752.22,18.84 752.16,20.22 752.16,22.02 L752.16,31.92 C752.16,34.02 752.22,35.16 752.34,36.42 C750.66,36.36 749.82,36.3 748.2,36.3 L732.06,36.3 C731.94,37.44 731.82,37.98 731.7,38.64 C732.72,38.7 733.44,38.7 734.88,38.7 L748.86,38.7 C750.48,38.7 751.62,38.64 753,38.52 C752.82,40.02 752.82,40.98 752.82,42.9 L752.82,50.04 C752.82,52.08 752.88,53.4 753.06,54.84 L746.76,54.84 L746.76,53.04 L737.16,53.04 L737.16,55.68 L730.92,55.68 C731.1,54.3 731.22,52.92 731.22,50.88 Z M732.9,24.84 L745.98,24.84 L745.98,22.38 L732.9,22.38 L732.9,24.84 Z M745.98,29.22 L732.72,29.22 C732.72,30.12 732.66,30.48 732.54,31.62 L745.98,31.62 L745.98,29.22 Z M745.14,10.98 C742.74,9.06 741.9,8.28 739.86,6.06 C738.12,8.28 737.4,9.12 735.48,10.98 L745.14,10.98 Z M737.22,43.44 L737.22,48.24 L746.7,48.24 L746.7,43.44 L737.22,43.44 Z M756.6,4.98 L763.44,4.98 C763.2,6.54 763.14,8.16 763.14,11.22 L763.14,35.22 C763.14,38.82 763.14,39.96 763.38,41.58 L756.6,41.58 C756.84,39.84 756.9,38.58 756.9,35.16 L756.9,11.34 C756.9,8.4 756.78,6.66 756.6,4.98 Z M768.66,0.9 L775.68,0.9 C775.38,2.58 775.32,4.5 775.32,8.16 L775.32,47.94 C775.32,53.58 773.7,54.84 766.38,54.84 C765.06,54.84 764.88,54.84 760.8,54.66 C760.38,51.6 760.14,50.58 759.24,48.3 C761.52,48.66 764.46,48.9 766.26,48.9 C768.48,48.9 769.02,48.54 769.02,47.04 L769.02,8.34 C769.02,4.74 768.9,2.82 768.66,0.9 Z M810.66,27.24 L811.14,27 C814.74,25.14 817.74,24.42 822.12,24.42 C831.84,24.42 838.14,29.46 838.14,37.2 C838.14,42.18 835.62,46.5 831.12,49.38 C827.46,51.66 822.18,52.92 816.18,52.92 C811.2,52.92 806.94,52.26 801.72,50.7 C801.66,47.64 801.48,46.26 800.64,42.78 C805.32,44.88 811.2,46.14 815.88,46.14 C824.58,46.14 830.4,42.6 830.4,37.32 C830.4,33 826.44,30.42 819.78,30.42 C812.04,30.42 802.32,34.62 796.5,40.44 L791.88,34.2 C793.8,33.18 796.38,31.32 799.74,28.56 C806.64,22.8 811.08,18.66 817.62,11.88 C817.86,11.58 817.86,11.58 818.22,11.22 C818.4,11.1 818.46,10.98 818.7,10.74 L818.64,10.68 C818.4,10.68 818.34,10.68 818.16,10.74 C815.76,11.1 808.44,11.52 803.28,11.64 C800.82,11.7 799.44,11.82 798.36,12 L798.12,4.86 C799.98,5.16 801.72,5.28 806.28,5.28 C812.1,5.28 818.76,4.98 823.32,4.56 C825.24,4.38 825.66,4.32 826.62,3.9 L830.46,9.36 C829.26,10.14 829.26,10.14 820.08,18.96 C816.66,22.26 813.84,24.66 810.48,27.18 L810.66,27.24 Z M866.76,8.94 L869.1,1.86 C875.76,4.08 884.64,5.34 894.12,5.34 L895.8,5.34 L894.78,12.72 C883.86,12.24 875.58,11.16 866.76,8.94 Z M861.48,28.98 L859.74,21 C861.3,20.94 861.3,20.94 866.7,19.98 C875.22,18.48 880.44,17.94 885.54,17.94 C890.4,17.94 894.12,18.72 896.88,20.4 C900.6,22.62 902.7,26.64 902.7,31.38 C902.7,38.22 898.56,44.46 891.3,48.6 C886.38,51.42 882.18,52.68 872.4,54.24 C871.8,51.06 871.14,49.56 869.28,46.74 C876.24,46.44 882.72,44.76 887.34,42.18 C892.08,39.54 894.66,35.76 894.66,31.62 C894.66,27.12 891.48,24.84 885.24,24.84 C878.46,24.84 866.46,26.94 861.48,28.98 Z" id="紡いで、未来のカタチを創ろう" fill="#0449C6"></path>
        </g>
    </g>
</svg>